# xmcd
#
# Track frame offsets: 
#        150
#        21673
#        51620
#        73322
#        86920
#        104365
#        121418
#        132795
#        147830
#        163447
#        181689
#        195924
#        214712
#        228391
#        247573
#
# Disc length: 3509 seconds
#
# Revision: 0
# Processed by: cddbd v1.5.2PL0 Copyright (c) Steve Scherf et al.
# Submitted via: ExactAudioCopy v1.0b3
#
DISCID=db0db30f
DTITLE=Various Artist - The Cat's Whiskers - Lap up the cream of contemporary
DTITLE=blues (The Blues Magazine)
DYEAR=2013
DGENRE=Blues
TTITLE0=King King - One More Time Around
TTITLE1=Albany Down - You Ain't Coming Home
TTITLE2=The Slide Brothers - Praise You
TTITLE3=Lucy Zirins - Goodnight
TTITLE4=The Graveltones - Sullen Blue
TTITLE5=James Cotton - Cotton Mouth Man
TTITLE6=Dave Arcari and The Helsinki Hellraisers - See Me Laughing
TTITLE7=Sallie Ford and The Sound Outside - They Told Me
TTITLE8=Craig Hughes - Cave Full Of Woman Bones
TTITLE9=Red Butler - Bringing Out the Devil
TTITLE10=The Mustangs - When God Met the Devil
TTITLE11=Chris Buck - Trail Of Tears
TTITLE12=The Silver Laces - This Again
TTITLE13=The New Groove - Shovellin' Dirt
TTITLE14=Jay Jesse Johnson - Through With Love
EXTD=
EXTT0=
EXTT1=
EXTT2=
EXTT3=
EXTT4=
EXTT5=
EXTT6=
EXTT7=
EXTT8=
EXTT9=
EXTT10=
EXTT11=
EXTT12=
EXTT13=
EXTT14=
PLAYORDER=
